<mxfile host="65bd71144e">
    <diagram id="Sihe7JXvkXG_14Oinybi" name="Page-1">
        <mxGraphModel dx="3670" dy="1898" grid="1" gridSize="10" guides="1" tooltips="1" connect="1" arrows="1" fold="1" page="1" pageScale="1" pageWidth="1100" pageHeight="850" math="0" shadow="0">
            <root>
                <mxCell id="0"/>
                <mxCell id="1" parent="0"/>
                <mxCell id="10" value="user" style="swimlane;childLayout=stackLayout;horizontal=1;startSize=30;horizontalStack=0;rounded=1;fontSize=14;fontStyle=1;strokeWidth=2;resizeParent=0;resizeLast=1;shadow=0;dashed=0;align=center;labelBorderColor=none;fillStyle=solid;fontColor=#0d0d0d;fillColor=#faf5fa;spacing=2;spacingTop=0;" vertex="1" parent="1">
                    <mxGeometry x="-75" y="-185" width="310" height="205" as="geometry"/>
                </mxCell>
                <mxCell id="11" value="-userId (int, not null, unique)&#10;-username (varchar, not null, unique)&#10;-firstName (varchar, not null)&#10;-lastName (varchar, not null)&#10;-phoneNumber (varchar, null)&#10;-email (varchar, not null, unique)&#10;-password (varchar)&#10;-role (admin, donor, recipient, charity) (varchar, not null)&#10;-status (active, deleted, suspended) (varchar, not null)&#10;-bio (varchar, null)&#10;&#10;" style="align=left;strokeColor=none;fillColor=none;spacingLeft=4;fontSize=12;verticalAlign=top;resizable=0;rotatable=0;part=1;rounded=1;labelBorderColor=none;fillStyle=solid;strokeWidth=2;fontColor=#fbf4f4;labelBackgroundColor=none;fontStyle=0;glass=0;shadow=0;" vertex="1" parent="10">
                    <mxGeometry y="30" width="310" height="175" as="geometry"/>
                </mxCell>
                <mxCell id="12" value="address" style="swimlane;childLayout=stackLayout;horizontal=1;startSize=30;horizontalStack=0;rounded=1;fontSize=14;fontStyle=1;strokeWidth=2;resizeParent=0;resizeLast=1;shadow=0;dashed=0;align=center;labelBorderColor=none;fillStyle=solid;fontColor=#0d0d0d;fillColor=#faf5fa;spacing=2;spacingTop=0;" vertex="1" parent="1">
                    <mxGeometry x="645" y="-160" width="210" height="160" as="geometry"/>
                </mxCell>
                <mxCell id="13" value="-addressID (int, not null, unique)&#10;-billing(varchar, not null)&#10;-line1 (varchar, not null)&#10;-line2 (varchar, null)&#10;-city (varchar, not null)&#10;-zipCode (varchar, not null)&#10;-country (varchar, not null)" style="align=left;strokeColor=none;fillColor=none;spacingLeft=4;fontSize=12;verticalAlign=top;resizable=0;rotatable=0;part=1;rounded=1;labelBorderColor=none;fillStyle=solid;strokeWidth=2;fontColor=#fbf4f4;labelBackgroundColor=none;fontStyle=0;glass=0;shadow=0;" vertex="1" parent="12">
                    <mxGeometry y="30" width="210" height="130" as="geometry"/>
                </mxCell>
                <mxCell id="14" value="notification" style="swimlane;childLayout=stackLayout;horizontal=1;startSize=30;horizontalStack=0;rounded=1;fontSize=14;fontStyle=1;strokeWidth=2;resizeParent=0;resizeLast=1;shadow=0;dashed=0;align=center;labelBorderColor=none;fillStyle=solid;fontColor=#0d0d0d;fillColor=#faf5fa;spacing=2;spacingTop=0;" vertex="1" parent="1">
                    <mxGeometry x="480" y="-630" width="370" height="140" as="geometry"/>
                </mxCell>
                <mxCell id="15" value="-notificationId (int, not null, unique)&#10;-title (varchar, not null)&#10;-message (varchar, not null)&#10;-notificationType (varchar, not null)&#10;-recipientId (int, not null) (references User entity, references userId)&#10;-notificationStatus (varchar, not null)" style="align=left;strokeColor=none;fillColor=none;spacingLeft=4;fontSize=12;verticalAlign=top;resizable=0;rotatable=0;part=1;rounded=1;labelBorderColor=none;fillStyle=solid;strokeWidth=2;fontColor=#fbf4f4;labelBackgroundColor=none;fontStyle=0;glass=0;shadow=0;" vertex="1" parent="14">
                    <mxGeometry y="30" width="370" height="110" as="geometry"/>
                </mxCell>
                <mxCell id="16" value="feedback" style="swimlane;childLayout=stackLayout;horizontal=1;startSize=30;horizontalStack=0;rounded=1;fontSize=14;fontStyle=1;strokeWidth=2;resizeParent=0;resizeLast=1;shadow=0;dashed=0;align=center;labelBorderColor=none;fillStyle=solid;fontColor=#0d0d0d;fillColor=#faf5fa;spacing=2;spacingTop=0;" vertex="1" parent="1">
                    <mxGeometry x="-110" y="-640" width="380" height="140" as="geometry"/>
                </mxCell>
                <mxCell id="17" value="-feedbackId (int, not null, unique)&#10;-rating (int, not null)&#10;-comment (varchar, null)&#10;-feedbackDate (datetime, not null)&#10;-donorId (int, not null) (references User entity, references userId)&#10;-recipientId (int, not null) (references User entity, references userId)" style="align=left;strokeColor=none;fillColor=none;spacingLeft=4;fontSize=12;verticalAlign=top;resizable=0;rotatable=0;part=1;rounded=1;labelBorderColor=none;fillStyle=solid;strokeWidth=2;fontColor=#fbf4f4;labelBackgroundColor=none;fontStyle=0;glass=0;shadow=0;" vertex="1" parent="16">
                    <mxGeometry y="30" width="380" height="110" as="geometry"/>
                </mxCell>
                <mxCell id="19" value="donation" style="swimlane;childLayout=stackLayout;horizontal=1;startSize=30;horizontalStack=0;rounded=1;fontSize=14;fontStyle=1;strokeWidth=2;resizeParent=0;resizeLast=1;shadow=0;dashed=0;align=center;labelBorderColor=none;fillStyle=solid;fontColor=#0d0d0d;fillColor=#faf5fa;spacing=2;spacingTop=0;" vertex="1" parent="1">
                    <mxGeometry x="-850" y="-155" width="370" height="150" as="geometry"/>
                </mxCell>
                <mxCell id="20" value="-donationId (int, not null, unique)&#10;-amount (decimal, not null)&#10;-donationDate (datetime, not null)&#10;-donationStatus (varchar, not null)&#10;-donorId (int, not null) (references User entity, references userId)&#10;-recipientId (int, not null) (references User entity, references userId)" style="align=left;strokeColor=none;fillColor=none;spacingLeft=4;fontSize=12;verticalAlign=top;resizable=0;rotatable=0;part=1;rounded=1;labelBorderColor=none;fillStyle=solid;strokeWidth=2;fontColor=#fbf4f4;labelBackgroundColor=none;fontStyle=0;glass=0;shadow=0;" vertex="1" parent="19">
                    <mxGeometry y="30" width="370" height="120" as="geometry"/>
                </mxCell>
                <mxCell id="21" value="campaign" style="swimlane;childLayout=stackLayout;horizontal=1;startSize=30;horizontalStack=0;rounded=1;fontSize=14;fontStyle=1;strokeWidth=2;resizeParent=0;resizeLast=1;shadow=0;dashed=0;align=center;labelBorderColor=none;fillStyle=solid;fontColor=#0d0d0d;fillColor=#faf5fa;spacing=2;spacingTop=0;" vertex="1" parent="1">
                    <mxGeometry x="-830" y="80" width="360" height="170" as="geometry"/>
                </mxCell>
                <mxCell id="22" value="-campaignId (int, not null, unique)&#10;-name (varchar, not null)&#10;-description (varchar, null)&#10;-targetAmount (decimal, not null)&#10;-startDate (datetime, not null)&#10;-endDate (datetime, not null)&#10;-charityId (int, not null) (references User entity, references userId)" style="align=left;strokeColor=none;fillColor=none;spacingLeft=4;fontSize=12;verticalAlign=top;resizable=0;rotatable=0;part=1;rounded=1;labelBorderColor=none;fillStyle=solid;strokeWidth=2;fontColor=#fbf4f4;labelBackgroundColor=none;fontStyle=0;glass=0;shadow=0;" vertex="1" parent="21">
                    <mxGeometry y="30" width="360" height="140" as="geometry"/>
                </mxCell>
                <mxCell id="23" value="card_info" style="swimlane;childLayout=stackLayout;horizontal=1;startSize=30;horizontalStack=0;rounded=1;fontSize=14;fontStyle=1;strokeWidth=2;resizeParent=0;resizeLast=1;shadow=0;dashed=0;align=center;labelBorderColor=none;fillStyle=solid;fontColor=#0d0d0d;fillColor=#faf5fa;spacing=2;spacingTop=0;" vertex="1" parent="1">
                    <mxGeometry x="645" y="60" width="220" height="150" as="geometry"/>
                </mxCell>
                <mxCell id="24" value="-cardId (int, not null, unique)&#10;-type (varchar, not null)&#10;-nameOnCard (varchar, not null)&#10;-cardNumber (varchar, not null)&#10;-cvvCode (varchar, not null)&#10;-cardBillingAddress (varchar, not null)&#10;-expireDate (varchar, not null)" style="align=left;strokeColor=none;fillColor=none;spacingLeft=4;fontSize=12;verticalAlign=top;resizable=0;rotatable=0;part=1;rounded=1;labelBorderColor=none;fillStyle=solid;strokeWidth=2;fontColor=#fbf4f4;labelBackgroundColor=none;fontStyle=0;glass=0;shadow=0;" vertex="1" parent="23">
                    <mxGeometry y="30" width="220" height="120" as="geometry"/>
                </mxCell>
                <mxCell id="25" value="doner_stats" style="swimlane;childLayout=stackLayout;horizontal=1;startSize=30;horizontalStack=0;rounded=1;fontSize=14;fontStyle=1;strokeWidth=2;resizeParent=0;resizeLast=1;shadow=0;dashed=0;align=center;labelBorderColor=none;fillStyle=solid;fontColor=#0d0d0d;fillColor=#faf5fa;spacing=2;spacingTop=0;" vertex="1" parent="1">
                    <mxGeometry x="370" y="450" width="360" height="130" as="geometry"/>
                </mxCell>
                <mxCell id="26" value="-donorId (int, not null) (references User entity, references userId)&#10;-numberOfDonations (int, not null)&#10;-lastDonationDate (datetime, null)&#10;-numberOfPeopleHelped (int, not null)&#10;-points (int, not null)&#10;-rank (int, not null)" style="align=left;strokeColor=none;fillColor=none;spacingLeft=4;fontSize=12;verticalAlign=top;resizable=0;rotatable=0;part=1;rounded=1;labelBorderColor=none;fillStyle=solid;strokeWidth=2;fontColor=#fbf4f4;labelBackgroundColor=none;fontStyle=0;glass=0;shadow=0;" vertex="1" parent="25">
                    <mxGeometry y="30" width="360" height="100" as="geometry"/>
                </mxCell>
                <mxCell id="27" value="recipient_stats" style="swimlane;childLayout=stackLayout;horizontal=1;startSize=30;horizontalStack=0;rounded=1;fontSize=14;fontStyle=1;strokeWidth=2;resizeParent=0;resizeLast=1;shadow=0;dashed=0;align=center;labelBorderColor=none;fillStyle=solid;fontColor=#0d0d0d;fillColor=#faf5fa;spacing=2;spacingTop=0;" vertex="1" parent="1">
                    <mxGeometry x="-580" y="455" width="370" height="120" as="geometry"/>
                </mxCell>
                <mxCell id="28" value="-recipientId (int, not null) (references User entity, references userId)&#10;-totalDonationsReceived (decimal, not null)&#10;-averageDonationAmount (decimal, not null)&#10;-totalAmountReceived (decimal, not null)" style="align=left;strokeColor=none;fillColor=none;spacingLeft=4;fontSize=12;verticalAlign=top;resizable=0;rotatable=0;part=1;rounded=1;labelBorderColor=none;fillStyle=solid;strokeWidth=2;fontColor=#fbf4f4;labelBackgroundColor=none;fontStyle=0;glass=0;shadow=0;" vertex="1" parent="27">
                    <mxGeometry y="30" width="370" height="90" as="geometry"/>
                </mxCell>
                <mxCell id="29" value="charity_stats" style="swimlane;childLayout=stackLayout;horizontal=1;startSize=30;horizontalStack=0;rounded=1;fontSize=14;fontStyle=1;strokeWidth=2;resizeParent=0;resizeLast=1;shadow=0;dashed=0;align=center;labelBorderColor=none;fillStyle=solid;fontColor=#0d0d0d;fillColor=#faf5fa;spacing=2;spacingTop=0;" vertex="1" parent="1">
                    <mxGeometry x="-105" y="440" width="370" height="150" as="geometry"/>
                </mxCell>
                <mxCell id="30" value="-charityId (int, not null) (references User entity, references userID)&#10;-charityDescription (varchar, not null)&#10;-totalDonationsReceived (decimal, not null)&#10;-totalCampaignsCreated (int, not null)&#10;-totalAmountReceived (decimal, not null)&#10;-totalDonorsReached (int, not null)&#10;-totalRecipientsHelped (int, not null)" style="align=left;strokeColor=none;fillColor=none;spacingLeft=4;fontSize=12;verticalAlign=top;resizable=0;rotatable=0;part=1;rounded=1;labelBorderColor=none;fillStyle=solid;strokeWidth=2;fontColor=#fbf4f4;labelBackgroundColor=none;fontStyle=0;glass=0;shadow=0;" vertex="1" parent="29">
                    <mxGeometry y="30" width="370" height="120" as="geometry"/>
                </mxCell>
                <mxCell id="45" value="&lt;font style=&quot;font-size: 17px;&quot; color=&quot;#050505&quot;&gt;&lt;b&gt;Has a&amp;nbsp;&lt;/b&gt;&lt;/font&gt;" style="shape=rhombus;perimeter=rhombusPerimeter;whiteSpace=wrap;html=1;align=center;rounded=0;shadow=0;glass=0;labelBackgroundColor=none;labelBorderColor=none;sketch=0;fillStyle=solid;strokeWidth=2;fontColor=#FFFFFF;fillColor=#f9f9fa;" vertex="1" parent="1">
                    <mxGeometry x="370" y="-115" width="170" height="100" as="geometry"/>
                </mxCell>
                <mxCell id="46" value="&lt;font style=&quot;font-size: 17px;&quot; color=&quot;#050505&quot;&gt;&lt;b&gt;makes/recieves&lt;/b&gt;&lt;/font&gt;" style="shape=rhombus;perimeter=rhombusPerimeter;whiteSpace=wrap;html=1;align=center;rounded=0;shadow=0;glass=0;labelBackgroundColor=none;labelBorderColor=none;sketch=0;fillStyle=solid;strokeWidth=2;fontColor=#FFFFFF;fillColor=#f9f9fa;" vertex="1" parent="1">
                    <mxGeometry x="-340" y="-115" width="170" height="100" as="geometry"/>
                </mxCell>
                <mxCell id="47" value="&lt;font color=&quot;#050505&quot;&gt;&lt;span style=&quot;font-size: 17px;&quot;&gt;&lt;b&gt;Provides&lt;/b&gt;&lt;/span&gt;&lt;/font&gt;" style="shape=rhombus;perimeter=rhombusPerimeter;whiteSpace=wrap;html=1;align=center;rounded=0;shadow=0;glass=0;labelBackgroundColor=none;labelBorderColor=none;sketch=0;fillStyle=solid;strokeWidth=2;fontColor=#FFFFFF;fillColor=#f9f9fa;" vertex="1" parent="1">
                    <mxGeometry x="-5" y="-390" width="170" height="100" as="geometry"/>
                </mxCell>
                <mxCell id="48" value="&lt;font style=&quot;font-size: 17px;&quot; color=&quot;#050505&quot;&gt;&lt;b&gt;Has&amp;nbsp;&lt;/b&gt;&lt;/font&gt;" style="shape=rhombus;perimeter=rhombusPerimeter;whiteSpace=wrap;html=1;align=center;rounded=0;shadow=0;glass=0;labelBackgroundColor=none;labelBorderColor=none;sketch=0;fillStyle=solid;strokeWidth=2;fontColor=#FFFFFF;fillColor=#f9f9fa;" vertex="1" parent="1">
                    <mxGeometry x="330" y="95" width="170" height="100" as="geometry"/>
                </mxCell>
                <mxCell id="49" value="&lt;font style=&quot;font-size: 17px;&quot; color=&quot;#050505&quot;&gt;&lt;b&gt;Has&amp;nbsp;&lt;/b&gt;&lt;/font&gt;" style="shape=rhombus;perimeter=rhombusPerimeter;whiteSpace=wrap;html=1;align=center;rounded=0;shadow=0;glass=0;labelBackgroundColor=none;labelBorderColor=none;sketch=0;fillStyle=solid;strokeWidth=2;fontColor=#FFFFFF;fillColor=#f9f9fa;" vertex="1" parent="1">
                    <mxGeometry x="-5" y="195" width="170" height="100" as="geometry"/>
                </mxCell>
                <mxCell id="50" value="&lt;font color=&quot;#050505&quot;&gt;&lt;span style=&quot;font-size: 17px;&quot;&gt;&lt;b&gt;Has a&lt;/b&gt;&lt;/span&gt;&lt;/font&gt;" style="shape=rhombus;perimeter=rhombusPerimeter;whiteSpace=wrap;html=1;align=center;rounded=0;shadow=0;glass=0;labelBackgroundColor=none;labelBorderColor=none;sketch=0;fillStyle=solid;strokeWidth=2;fontColor=#FFFFFF;fillColor=#f9f9fa;" vertex="1" parent="1">
                    <mxGeometry x="-310" y="125" width="170" height="100" as="geometry"/>
                </mxCell>
                <mxCell id="51" value="&lt;font style=&quot;font-size: 17px;&quot; color=&quot;#050505&quot;&gt;&lt;b&gt;receives&lt;/b&gt;&lt;/font&gt;" style="shape=rhombus;perimeter=rhombusPerimeter;whiteSpace=wrap;html=1;align=center;rounded=0;shadow=0;glass=0;labelBackgroundColor=none;labelBorderColor=none;sketch=0;fillStyle=solid;strokeWidth=2;fontColor=#FFFFFF;fillColor=#f9f9fa;" vertex="1" parent="1">
                    <mxGeometry x="340" y="-360" width="170" height="100" as="geometry"/>
                </mxCell>
                <mxCell id="52" value="" style="endArrow=none;html=1;strokeWidth=2;fontSize=17;fontColor=#050505;targetPerimeterSpacing=0;curved=1;entryX=0.5;entryY=1;entryDx=0;entryDy=0;exitX=1;exitY=0;exitDx=0;exitDy=0;" edge="1" parent="1" source="11" target="51">
                    <mxGeometry width="50" height="50" relative="1" as="geometry">
                        <mxPoint x="350" y="-190" as="sourcePoint"/>
                        <mxPoint x="400" y="-240" as="targetPoint"/>
                        <Array as="points">
                            <mxPoint x="410" y="-190"/>
                        </Array>
                    </mxGeometry>
                </mxCell>
                <mxCell id="53" value="" style="endArrow=none;html=1;strokeWidth=6;fontSize=17;fontColor=#050505;targetPerimeterSpacing=0;curved=1;entryX=0.5;entryY=1;entryDx=0;entryDy=0;exitX=0.5;exitY=0;exitDx=0;exitDy=0;" edge="1" parent="1" source="51" target="15">
                    <mxGeometry width="50" height="50" relative="1" as="geometry">
                        <mxPoint x="390" y="-220" as="sourcePoint"/>
                        <mxPoint x="440" y="-270" as="targetPoint"/>
                        <Array as="points">
                            <mxPoint x="425" y="-420"/>
                            <mxPoint x="650" y="-400"/>
                        </Array>
                    </mxGeometry>
                </mxCell>
                <mxCell id="54" value="" style="endArrow=none;html=1;strokeWidth=2;fontSize=17;fontColor=#050505;targetPerimeterSpacing=0;curved=1;exitX=0.5;exitY=0;exitDx=0;exitDy=0;entryX=0.5;entryY=1;entryDx=0;entryDy=0;" edge="1" parent="1" source="10" target="47">
                    <mxGeometry width="50" height="50" relative="1" as="geometry">
                        <mxPoint x="180" y="-350" as="sourcePoint"/>
                        <mxPoint x="230" y="-400" as="targetPoint"/>
                    </mxGeometry>
                </mxCell>
                <mxCell id="55" value="" style="endArrow=none;html=1;strokeWidth=6;fontSize=17;fontColor=#050505;targetPerimeterSpacing=0;curved=1;exitX=0.5;exitY=0;exitDx=0;exitDy=0;entryX=0.5;entryY=1;entryDx=0;entryDy=0;" edge="1" parent="1" source="47" target="17">
                    <mxGeometry width="50" height="50" relative="1" as="geometry">
                        <mxPoint x="180" y="-350" as="sourcePoint"/>
                        <mxPoint x="230" y="-400" as="targetPoint"/>
                    </mxGeometry>
                </mxCell>
                <mxCell id="56" value="" style="endArrow=block;html=1;strokeWidth=6;fontSize=17;fontColor=#050505;targetPerimeterSpacing=0;curved=1;entryX=0.5;entryY=1;entryDx=0;entryDy=0;exitX=0.5;exitY=0;exitDx=0;exitDy=0;endFill=0;" edge="1" parent="1" source="29" target="49">
                    <mxGeometry width="50" height="50" relative="1" as="geometry">
                        <mxPoint x="40" y="300" as="sourcePoint"/>
                        <mxPoint x="90" y="250" as="targetPoint"/>
                    </mxGeometry>
                </mxCell>
                <mxCell id="57" value="" style="endArrow=block;html=1;strokeWidth=6;fontSize=17;fontColor=#050505;targetPerimeterSpacing=0;curved=1;exitX=0.5;exitY=0;exitDx=0;exitDy=0;entryX=0;entryY=1;entryDx=0;entryDy=0;endFill=0;" edge="1" parent="1" source="27" target="49">
                    <mxGeometry width="50" height="50" relative="1" as="geometry">
                        <mxPoint x="-330" y="380" as="sourcePoint"/>
                        <mxPoint x="40" y="310" as="targetPoint"/>
                        <Array as="points">
                            <mxPoint x="-350" y="390"/>
                            <mxPoint x="-150" y="370"/>
                            <mxPoint x="40" y="370"/>
                        </Array>
                    </mxGeometry>
                </mxCell>
                <mxCell id="58" value="" style="endArrow=none;html=1;strokeWidth=6;fontSize=17;fontColor=#050505;targetPerimeterSpacing=0;curved=1;entryX=0.5;entryY=0;entryDx=0;entryDy=0;exitX=1;exitY=1;exitDx=0;exitDy=0;endFill=0;startArrow=block;startFill=0;" edge="1" parent="1" source="49" target="25">
                    <mxGeometry width="50" height="50" relative="1" as="geometry">
                        <mxPoint x="80" y="290" as="sourcePoint"/>
                        <mxPoint x="240" y="320" as="targetPoint"/>
                        <Array as="points">
                            <mxPoint x="160" y="350"/>
                            <mxPoint x="490" y="370"/>
                        </Array>
                    </mxGeometry>
                </mxCell>
                <mxCell id="59" value="" style="endArrow=none;html=1;strokeWidth=2;fontSize=17;fontColor=#050505;targetPerimeterSpacing=0;curved=1;entryX=0.5;entryY=1;entryDx=0;entryDy=0;exitX=0.5;exitY=0;exitDx=0;exitDy=0;" edge="1" parent="1" source="49" target="11">
                    <mxGeometry width="50" height="50" relative="1" as="geometry">
                        <mxPoint x="-110" y="220" as="sourcePoint"/>
                        <mxPoint x="-60" y="170" as="targetPoint"/>
                    </mxGeometry>
                </mxCell>
                <mxCell id="60" value="" style="endArrow=none;html=1;strokeWidth=2;fontSize=17;fontColor=#050505;targetPerimeterSpacing=0;curved=1;exitX=0;exitY=0.5;exitDx=0;exitDy=0;entryX=0.75;entryY=1;entryDx=0;entryDy=0;" edge="1" parent="1" source="48" target="11">
                    <mxGeometry width="50" height="50" relative="1" as="geometry">
                        <mxPoint x="350" y="70" as="sourcePoint"/>
                        <mxPoint x="400" y="20" as="targetPoint"/>
                        <Array as="points">
                            <mxPoint x="170" y="160"/>
                        </Array>
                    </mxGeometry>
                </mxCell>
                <mxCell id="61" value="" style="endArrow=none;html=1;strokeWidth=6;fontSize=17;fontColor=#050505;targetPerimeterSpacing=0;curved=1;exitX=1;exitY=0.5;exitDx=0;exitDy=0;entryX=0;entryY=0.5;entryDx=0;entryDy=0;startArrow=block;startFill=0;" edge="1" parent="1" source="48" target="24">
                    <mxGeometry width="50" height="50" relative="1" as="geometry">
                        <mxPoint x="350" y="70" as="sourcePoint"/>
                        <mxPoint x="400" y="20" as="targetPoint"/>
                    </mxGeometry>
                </mxCell>
                <mxCell id="62" value="" style="endArrow=none;html=1;strokeWidth=6;fontSize=17;fontColor=#050505;targetPerimeterSpacing=0;curved=1;exitX=1;exitY=0.5;exitDx=0;exitDy=0;entryX=0;entryY=0.5;entryDx=0;entryDy=0;startArrow=none;startFill=0;" edge="1" parent="1" source="11" target="45">
                    <mxGeometry width="50" height="50" relative="1" as="geometry">
                        <mxPoint x="350" y="70" as="sourcePoint"/>
                        <mxPoint x="350" y="-30" as="targetPoint"/>
                    </mxGeometry>
                </mxCell>
                <mxCell id="63" value="" style="endArrow=none;html=1;strokeWidth=6;fontSize=17;fontColor=#050505;targetPerimeterSpacing=0;curved=1;exitX=1;exitY=0.5;exitDx=0;exitDy=0;entryX=0;entryY=0.5;entryDx=0;entryDy=0;endFill=0;" edge="1" parent="1" source="45" target="13">
                    <mxGeometry width="50" height="50" relative="1" as="geometry">
                        <mxPoint x="570" y="70" as="sourcePoint"/>
                        <mxPoint x="620" y="20" as="targetPoint"/>
                    </mxGeometry>
                </mxCell>
                <mxCell id="64" value="" style="endArrow=none;html=1;strokeWidth=2;fontSize=17;fontColor=#050505;targetPerimeterSpacing=0;curved=1;exitX=0;exitY=0.5;exitDx=0;exitDy=0;entryX=1;entryY=0.5;entryDx=0;entryDy=0;" edge="1" parent="1" source="11" target="46">
                    <mxGeometry width="50" height="50" relative="1" as="geometry">
                        <mxPoint x="-290" y="50" as="sourcePoint"/>
                        <mxPoint x="-240" as="targetPoint"/>
                    </mxGeometry>
                </mxCell>
                <mxCell id="65" value="" style="endArrow=block;html=1;strokeWidth=6;fontSize=17;fontColor=#050505;targetPerimeterSpacing=0;curved=1;entryX=0;entryY=0.5;entryDx=0;entryDy=0;exitX=1;exitY=0.5;exitDx=0;exitDy=0;endFill=0;" edge="1" parent="1" source="20" target="46">
                    <mxGeometry width="50" height="50" relative="1" as="geometry">
                        <mxPoint x="-570" y="90" as="sourcePoint"/>
                        <mxPoint x="-520" y="40" as="targetPoint"/>
                    </mxGeometry>
                </mxCell>
                <mxCell id="66" value="" style="endArrow=none;html=1;strokeWidth=6;fontSize=17;fontColor=#050505;targetPerimeterSpacing=0;curved=1;entryX=0;entryY=0.5;entryDx=0;entryDy=0;exitX=1;exitY=0.5;exitDx=0;exitDy=0;" edge="1" parent="1" source="22" target="50">
                    <mxGeometry width="50" height="50" relative="1" as="geometry">
                        <mxPoint x="-370" y="270" as="sourcePoint"/>
                        <mxPoint x="-320" y="220" as="targetPoint"/>
                    </mxGeometry>
                </mxCell>
                <mxCell id="67" value="" style="endArrow=none;html=1;strokeWidth=2;fontSize=17;fontColor=#050505;targetPerimeterSpacing=0;curved=1;entryX=1;entryY=0.5;entryDx=0;entryDy=0;exitX=0.25;exitY=1;exitDx=0;exitDy=0;" edge="1" parent="1" source="11" target="50">
                    <mxGeometry width="50" height="50" relative="1" as="geometry">
                        <mxPoint x="-370" y="270" as="sourcePoint"/>
                        <mxPoint x="-320" y="220" as="targetPoint"/>
                        <Array as="points">
                            <mxPoint y="175"/>
                        </Array>
                    </mxGeometry>
                </mxCell>
                <mxCell id="68" value="KEY" style="swimlane;childLayout=stackLayout;horizontal=1;startSize=30;horizontalStack=0;rounded=1;fontSize=18;fontStyle=1;strokeWidth=2;resizeParent=0;resizeLast=1;shadow=0;dashed=0;align=center;glass=0;labelBackgroundColor=none;labelBorderColor=none;sketch=0;fillStyle=solid;fontColor=#050505;fillColor=#f9f9fa;" vertex="1" parent="1">
                    <mxGeometry x="-730" y="-810" width="470" height="500" as="geometry"/>
                </mxCell>
                <mxCell id="69" value="Bold line Indicates mandatory participation&#10;&#10;Regular line indicates optional particiapation&#10;&#10;Arrow indicates entity can participate at most once&#10;&#10;E.g. a user may optionally have card info, but card &#10;info must belong to one, and only one user." style="align=left;strokeColor=#36393d;fillColor=#eeeeee;spacingLeft=4;fontSize=19;verticalAlign=top;resizable=0;rotatable=0;part=1;rounded=0;shadow=0;glass=0;labelBackgroundColor=none;labelBorderColor=none;sketch=0;fillStyle=solid;strokeWidth=2;fontColor=#050505;fontStyle=0" vertex="1" parent="68">
                    <mxGeometry y="30" width="470" height="470" as="geometry"/>
                </mxCell>
                <mxCell id="71" value="+Attribute1&#10;+Attribute2&#10;+Attribute3" style="align=left;strokeColor=none;fillColor=none;spacingLeft=4;fontSize=12;verticalAlign=top;resizable=0;rotatable=0;part=1;rounded=0;shadow=0;glass=0;labelBackgroundColor=none;labelBorderColor=none;sketch=0;fillStyle=solid;strokeWidth=2;fontColor=#050505;" vertex="1" parent="68">
                    <mxGeometry y="500" width="470" as="geometry"/>
                </mxCell>
            </root>
        </mxGraphModel>
    </diagram>
</mxfile>